<svg width="1280" height="640" viewBox="0 0 1280 640" xmlns="http://www.w3.org/2000/svg" font-family="-apple-system, 'Segoe UI', Roboto, sans-serif">
  <rect width="1280" height="640" fill="#1a1a1d"/>

  <!-- subtle fader/waveform motif on the right -->
  <g opacity="0.10" stroke="#ffb347" stroke-width="3" stroke-linecap="round">
    <line x1="980"  y1="150" x2="980"  y2="490"/>
    <line x1="1030" y1="120" x2="1030" y2="490"/>
    <line x1="1080" y1="200" x2="1080" y2="490"/>
    <line x1="1130" y1="100" x2="1130" y2="490"/>
    <line x1="1180" y1="240" x2="1180" y2="490"/>
    <line x1="1230" y1="170" x2="1230" y2="490"/>
  </g>
  <g opacity="0.18" fill="#ffb347">
    <circle cx="980"  cy="300" r="9"/>
    <circle cx="1030" cy="240" r="9"/>
    <circle cx="1080" cy="340" r="9"/>
    <circle cx="1130" cy="210" r="9"/>
    <circle cx="1180" cy="380" r="9"/>
    <circle cx="1230" cy="280" r="9"/>
  </g>

  <!-- logo mark -->
  <g transform="translate(96,170)">
    <rect x="0" y="0" width="92" height="92" rx="20" fill="#232327" stroke="#38383f" stroke-width="2"/>
    <g stroke-linecap="round">
      <line x1="24" y1="26" x2="24" y2="66" stroke="#ffb347" stroke-width="7"/>
      <line x1="46" y1="26" x2="46" y2="66" stroke="#6cc6ff" stroke-width="7"/>
      <line x1="68" y1="26" x2="68" y2="66" stroke="#5ad17a" stroke-width="7"/>
      <circle cx="24" cy="40" r="7" fill="#ffb347"/>
      <circle cx="46" cy="56" r="7" fill="#6cc6ff"/>
      <circle cx="68" cy="34" r="7" fill="#5ad17a"/>
    </g>
  </g>

  <!-- title -->
  <text x="212" y="210" fill="#e8e8ea" font-size="76" font-weight="700" letter-spacing="-1">Live Studio</text>
  <text x="214" y="258" fill="#9a9aa2" font-size="25" letter-spacing="5">SUPER-EXTENSION FOR ABLETON LIVE</text>

  <!-- tagline -->
  <text x="98" y="380" fill="#e8e8ea" font-size="32" font-weight="500">58 modules · 244 tools · AI copilot · ⌘K palette</text>

  <!-- stat chips -->
  <g font-size="22" font-weight="500">
    <g transform="translate(98,460)">
      <rect width="200" height="58" rx="12" fill="#232327" stroke="#38383f"/>
      <text x="20" y="26" fill="#ffb347" font-size="26" font-weight="700">58</text>
      <text x="20" y="46" fill="#9a9aa2" font-size="14">modules</text>
    </g>
    <g transform="translate(316,460)">
      <rect width="200" height="58" rx="12" fill="#232327" stroke="#38383f"/>
      <text x="20" y="26" fill="#6cc6ff" font-size="26" font-weight="700">244</text>
      <text x="20" y="46" fill="#9a9aa2" font-size="14">real tools</text>
    </g>
    <g transform="translate(534,460)">
      <rect width="220" height="58" rx="12" fill="#232327" stroke="#38383f"/>
      <text x="20" y="26" fill="#5ad17a" font-size="26" font-weight="700">84</text>
      <text x="20" y="46" fill="#9a9aa2" font-size="14">quick actions</text>
    </g>
    <g transform="translate(772,460)">
      <rect width="180" height="58" rx="12" fill="#232327" stroke="#38383f"/>
      <text x="20" y="26" fill="#e8e8ea" font-size="26" font-weight="700">22</text>
      <text x="20" y="46" fill="#9a9aa2" font-size="14">rich panels</text>
    </g>
  </g>
</svg>
