<svg width="1100" height="640" viewBox="0 0 1100 640" xmlns="http://www.w3.org/2000/svg" font-family="-apple-system, 'Segoe UI', Roboto, sans-serif">
  <rect width="1100" height="640" fill="#1a1a1d" rx="12"/>
  <text x="40" y="50" fill="#e8e8ea" font-size="22">🎶 Harmonic Mixing</text>
  <text x="40" y="74" fill="#9a9aa2" font-size="14">Camelot wheel: detect a track's key and highlight its compatibles.</text>
  <text x="40" y="100" fill="#9a9aa2" font-size="13">Track 0 → <tspan fill="#e8e8ea">Em · 9A · confidence 0.91</tspan></text>

  <!-- wheel -->
  <g transform="translate(60,140)" font-size="13" text-anchor="middle">
    <!-- 12 segments. Inside=A, outside=B. Positions calculated from center (220, 220), radii 110 (A) and 162 (B). -->
    <!-- 12 o'clock = 1 -->
    <g><circle cx="220" cy="110" r="24" fill="#2c2c31" stroke="#38383f"/><text x="220" y="114" fill="#9a9aa2">1A</text></g>
    <g><circle cx="220" cy="58"  r="24" fill="#38383f" stroke="#38383f"/><text x="220" y="62"  fill="#9a9aa2">1B</text></g>
    <!-- 2 -->
    <g><circle cx="275" cy="124" r="24" fill="#2c2c31" stroke="#38383f"/><text x="275" y="128" fill="#9a9aa2">2A</text></g>
    <g><circle cx="301" cy="83"  r="24" fill="#38383f" stroke="#38383f"/><text x="301" y="87"  fill="#9a9aa2">2B</text></g>
    <!-- 3 -->
    <g><circle cx="315" cy="167" r="24" fill="#2c2c31" stroke="#38383f"/><text x="315" y="171" fill="#9a9aa2">3A</text></g>
    <g><circle cx="361" cy="146" r="24" fill="#38383f" stroke="#38383f"/><text x="361" y="150" fill="#9a9aa2">3B</text></g>
    <!-- 4 (right) -->
    <g><circle cx="330" cy="220" r="24" fill="#2c2c31" stroke="#38383f"/><text x="330" y="224" fill="#9a9aa2">4A</text></g>
    <g><circle cx="382" cy="220" r="24" fill="#38383f" stroke="#38383f"/><text x="382" y="224" fill="#9a9aa2">4B</text></g>
    <!-- 5 -->
    <g><circle cx="315" cy="273" r="24" fill="#2c2c31" stroke="#38383f"/><text x="315" y="277" fill="#9a9aa2">5A</text></g>
    <g><circle cx="361" cy="294" r="24" fill="#38383f" stroke="#38383f"/><text x="361" y="298" fill="#9a9aa2">5B</text></g>
    <!-- 6 -->
    <g><circle cx="275" cy="316" r="24" fill="#2c2c31" stroke="#38383f"/><text x="275" y="320" fill="#9a9aa2">6A</text></g>
    <g><circle cx="301" cy="357" r="24" fill="#38383f" stroke="#38383f"/><text x="301" y="361" fill="#9a9aa2">6B</text></g>
    <!-- 7 (bottom) -->
    <g><circle cx="220" cy="330" r="24" fill="#2c2c31" stroke="#38383f"/><text x="220" y="334" fill="#9a9aa2">7A</text></g>
    <g><circle cx="220" cy="382" r="24" fill="#38383f" stroke="#38383f"/><text x="220" y="386" fill="#9a9aa2">7B</text></g>
    <!-- 8 — compat (green) -->
    <g><circle cx="165" cy="316" r="24" fill="#5ad17a" stroke="#5ad17a"/><text x="165" y="320" fill="#1a1a1d" font-weight="500">8A</text></g>
    <g><circle cx="139" cy="357" r="24" fill="#38383f" stroke="#38383f"/><text x="139" y="361" fill="#9a9aa2">8B</text></g>
    <!-- 9A ACTIVE (orange) -->
    <g><circle cx="125" cy="273" r="28" fill="#ffb347" stroke="#ffb347"/><text x="125" y="278" fill="#1a1a1d" font-weight="700" font-size="14">9A</text></g>
    <!-- 9B compat -->
    <g><circle cx="79" cy="294" r="24" fill="#5ad17a" stroke="#5ad17a"/><text x="79" y="298" fill="#1a1a1d" font-weight="500">9B</text></g>
    <!-- 10 — compat (green) -->
    <g><circle cx="110" cy="220" r="24" fill="#5ad17a" stroke="#5ad17a"/><text x="110" y="224" fill="#1a1a1d" font-weight="500">10A</text></g>
    <g><circle cx="58" cy="220" r="24" fill="#38383f" stroke="#38383f"/><text x="58" y="224" fill="#9a9aa2">10B</text></g>
    <!-- 11 -->
    <g><circle cx="125" cy="167" r="24" fill="#2c2c31" stroke="#38383f"/><text x="125" y="171" fill="#9a9aa2">11A</text></g>
    <g><circle cx="79" cy="146" r="24" fill="#38383f" stroke="#38383f"/><text x="79" y="150" fill="#9a9aa2">11B</text></g>
    <!-- 12 -->
    <g><circle cx="165" cy="124" r="24" fill="#2c2c31" stroke="#38383f"/><text x="165" y="128" fill="#9a9aa2">12A</text></g>
    <g><circle cx="139" cy="83"  r="24" fill="#38383f" stroke="#38383f"/><text x="139" y="87"  fill="#9a9aa2">12B</text></g>
  </g>

  <!-- right side: compatible tracks list -->
  <g transform="translate(580,140)">
    <text x="0" y="0" fill="#e8e8ea" font-size="15">Compatible tracks</text>
    <g transform="translate(0,18)">
      <rect width="460" height="44" rx="8" fill="#232327" stroke="#38383f"/>
      <rect width="3" height="44" fill="#5ad17a"/>
      <text x="20" y="28" fill="#e8e8ea" font-size="14" font-weight="500">Bass</text>
      <text x="446" y="28" fill="#9a9aa2" font-size="12" text-anchor="end">8A · energy +0.27</text>
    </g>
    <g transform="translate(0,72)">
      <rect width="460" height="44" rx="8" fill="#232327" stroke="#38383f"/>
      <rect width="3" height="44" fill="#5ad17a"/>
      <text x="20" y="28" fill="#e8e8ea" font-size="14" font-weight="500">Pad</text>
      <text x="446" y="28" fill="#9a9aa2" font-size="12" text-anchor="end">10A · energy −0.11</text>
    </g>
    <g transform="translate(0,126)">
      <rect width="460" height="44" rx="8" fill="#232327" stroke="#38383f"/>
      <text x="20" y="28" fill="#e8e8ea" font-size="14" font-weight="500">Synth Lead</text>
      <text x="446" y="28" fill="#9a9aa2" font-size="12" text-anchor="end">9B · energy +0.05</text>
    </g>
    <g transform="translate(0,180)">
      <rect width="460" height="44" rx="8" fill="#232327" stroke="#38383f"/>
      <text x="20" y="28" fill="#e8e8ea" font-size="14" font-weight="500">Strings</text>
      <text x="446" y="28" fill="#9a9aa2" font-size="12" text-anchor="end">7A · energy +0.32</text>
    </g>

    <text x="0" y="260" fill="#e8e8ea" font-size="15">Suggested transition</text>
    <g transform="translate(0,278)">
      <rect width="460" height="62" rx="8" fill="#232327" stroke="#38383f"/>
      <text x="20" y="28" fill="#e8e8ea" font-size="14">Energy Boost · move +1 Camelot</text>
      <text x="20" y="48" fill="#9a9aa2" font-size="12">Mix into 10A (Pad) for a rising energy transition.</text>
    </g>
  </g>
</svg>
